#!OML:ASF G:\JayActor3\Patient Classification 1\Patient 1\Session 2\male.ASF
:FULLY-SPECIFIED
:DEGREES
3324
root -31.3501 15.8888 -5.5253 373.548 83.1608 -1794.87
lowerback 15.7508 -2.90926 -3.43866
upperback 11.8415 -3.45648 3.46897
thorax 4.3324 -1.80225 6.04325
lowerneck 9.83831 -13.8781 -10.515
upperneck -21.035 -16.3031 26.5593
head -4.42958 -9.64068 11.0873
rclavicle 1.37161e-014 7.95139e-016
rhumerus 5.54521 14.2703 -64.6303
rradius 95.2524
rwrist 9.79722
rhand -43.251 18.7096
rfingers 7.12502
rthumb -16.1 -10.6416
lclavicle 1.37161e-014 7.95139e-016
lhumerus -21.164 6.18944 66.1102
lradius 92.7893
lwrist 9.01806
lhand -38.5069 13.8821
lfingers 7.12502
lthumb -11.5282 43.5451
rfemur -46.6225 -3.79249 28.5155
rtibia 52.1263
rfoot -21.4152 -19.3384
rtoes 27.083
lfemur -18.5332 9.95177 -22.8891
ltibia 68.3841
lfoot 4.39627 -3.8554
ltoes -10.8308
3325
root -31.289 15.8768 -5.53004 371.915 82.9494 -1796.46
lowerback 15.996 -2.97708 -3.36136
upperback 11.8738 -3.53314 3.52734
thorax 4.24932 -1.83507 6.08307
lowerneck 9.91716 -14.108 -10.5878
upperneck -21.1087 -16.5973 26.8959
head -4.36036 -9.82225 11.202
rclavicle 6.65929e-014 -6.48038e-014
rhumerus 5.89707 14.5226 -64.6948
rradius 95.2534
rwrist 9.79818
rhand -43.2623 18.7736
rfingers 7.12502
rthumb -16.1109 -10.5767
lclavicle 6.65929e-014 -6.48038e-014
lhumerus -21.3352 6.28558 66.1077
lradius 92.7857
lwrist 9.07495
lhand -38.5912 13.9321
lfingers 7.12502
lthumb -11.6094 43.5905
rfemur -46.4648 -3.69715 28.6784
rtibia 52.4077
rfoot -21.6878 -19.2018
rtoes 26.9459
lfemur -19.7999 9.95232 -22.6775
ltibia 70.0776
lfoot 4.24641 -4.11171
ltoes -10.8474
3326
root -31.2295 15.8638 -5.53559 370.489 82.7017 -1797.86
lowerback 16.2182 -3.03422 -3.30482
upperback 11.9015 -3.59875 3.57969
thorax 4.17324 -1.86405 6.12632
lowerneck 9.99285 -14.3143 -10.6455
upperneck -21.1768 -16.8582 27.2117
head -4.29828 -9.98622 11.3083
rclavicle 1.68967e-014 -3.93594e-014
rhumerus 6.25112 14.7814 -64.7603
rradius 95.2352
rwrist 9.81408
rhand -43.277 18.8503
rfingers 7.12502
rthumb -16.1251 -10.4988
lclavicle 1.68967e-014 -3.93594e-014
lhumerus -21.4791 6.36902 66.1104
lradius 92.7604
lwrist 9.12849
lhand -38.6744 13.982
lfingers 7.12502
lthumb -11.6896 43.6359
rfemur -46.3288 -3.59267 28.8301
rtibia 52.689
rfoot -21.9605 -19.0623
rtoes 26.806
lfemur -21.0905 9.97127 -22.5036
ltibia 71.6616
lfoot 3.56859 -4.37403
ltoes -11.5876
3327
root -31.1714 15.8509 -5.54179 369.262 82.4199 -1799.08
lowerback 16.4096 -3.07899 -3.26644
upperback 11.9247 -3.65115 3.6248
thorax 4.10763 -1.88802 6.16934
lowerneck 10.0618 -14.4998 -10.6906
upperneck -21.2362 -17.0889 27.5189
head -4.23975 -10.1347 11.41
rclavicle -2.08724e-014 2.56432e-014
rhumerus 6.60199 15.0337 -64.8341
rradius 95.1985
rwrist 9.84952
rhand -43.2888 18.9259
rfingers 7.12502
rthumb -16.1365 -10.4224
lclavicle -2.08724e-014 2.56432e-014
lhumerus -21.5841 6.43837 66.1198
lradius 92.7123
lwrist 9.17877
lhand -38.7485 14.0438
lfingers 7.12502
lthumb -11.7611 43.6936
rfemur -46.2167 -3.4675 28.9677
rtibia 52.9656
rfoot -22.2315 -18.9187
rtoes 26.6727
lfemur -22.4146 10.0002 -22.3659
ltibia 73.1186
lfoot 2.53717 -4.54858
ltoes -12.6458
3328
root -31.1135 15.8381 -5.54844 368.198 82.103 -1800.13
lowerback 16.5798 -3.11113 -3.25012
upperback 11.9511 -3.68995 3.66422
thorax 4.05629 -1.90703 6.21626
lowerneck 10.1207 -14.6692 -10.7325
upperneck -21.2822 -17.2974 27.8236
head -4.1797 -10.2713 11.5092
rclavicle 6.48038e-014 -2.64384e-014
rhumerus 6.94451 15.2789 -64.9155
rradius 95.1489
rwrist 9.89935
rhand -43.286 18.9983
rfingers 7.12502
rthumb -16.1337 -10.3502
lclavicle 6.48038e-014 -2.64384e-014
lhumerus -21.6559 6.49998 66.1401
lradius 92.6491
lwrist 9.2324
lhand -38.8057 14.1084
lfingers 7.12502
lthumb -11.8163 43.755
rfemur -46.1005 -3.31462 29.0855
rtibia 53.2364
rfoot -22.5051 -18.7565
rtoes 26.5688
lfemur -23.7461 10.0437 -22.2542
ltibia 74.4341
lfoot 1.3147 -4.58157
ltoes -14.0839
3329
root -31.0575 15.8251 -5.55499 367.293 81.7907 -1801.05
lowerback 16.7297 -3.14136 -3.25096
upperback 11.9708 -3.72912 3.70487
thorax 4.00993 -1.9278 6.27349
lowerneck 10.1556 -14.8262 -10.7685
upperneck -21.3056 -17.4903 28.1193
head -4.11278 -10.3978 11.6003
rclavicle -3.49861e-014 2.48481e-014
rhumerus 7.27466 15.5115 -65.0078
rradius 95.0898
rwrist 9.95203
rhand -43.2657 19.0475
rfingers 7.12502
rthumb -16.1142 -10.3026
lclavicle -3.49861e-014 2.48481e-014
lhumerus -21.6962 6.55461 66.1694
lradius 92.5778
lwrist 9.29036
lhand -38.8293 14.1566
lfingers 7.12502
lthumb -11.839 43.8019
rfemur -46.012 -3.15024 29.1895
rtibia 53.5036
rfoot -22.7725 -18.5838
rtoes 26.4946
lfemur -25.1295 10.0535 -22.1595
ltibia 75.6126
lfoot 0.0700385 -4.40362
ltoes -15.6955
3330
root -31.0018 15.8126 -5.56195 366.466 81.4518 -1801.89
lowerback 16.8679 -3.16158 -3.26521
upperback 11.9932 -3.75708 3.74428
thorax 3.97241 -1.94419 6.33516
lowerneck 10.153 -14.9713 -10.7971
upperneck -21.2997 -17.6698 28.3961
head -4.03574 -10.5134 11.6775
rclavicle -2.127e-014 -8.74653e-015
rhumerus 7.59407 15.7322 -65.1113
rradius 95.0234
rwrist 9.99192
rhand -43.2152 19.0623
rfingers 7.12502
rthumb -16.0656 -10.2916
lclavicle -2.127e-014 -8.74653e-015
lhumerus -21.7106 6.60889 66.2092
lradius 92.5091
lwrist 9.35502
lhand -38.8223 14.1859
lfingers 7.12502
lthumb -11.8323 43.8316
rfemur -45.9204 -2.9646 29.2826
rtibia 53.7643
rfoot -23.0343 -18.37
rtoes 26.4915
lfemur -26.5236 10.0627 -22.0728
ltibia 76.6398
lfoot -1.20413 -4.00204
ltoes -17.2851
3331
root -30.9475 15.8005 -5.56913 365.711 81.1092 -1802.68
lowerback 16.9959 -3.18086 -3.29051
upperback 12.0142 -3.78557 3.78574
thorax 3.94008 -1.96195 6.405
lowerneck 10.1163 -15.1044 -10.8221
upperneck -21.2692 -17.8365 28.6516
head -3.95061 -10.6182 11.7414
rclavicle 7.15625e-015 1.61016e-014
rhumerus 7.90668 15.9484 -65.2279
rradius 94.9475
rwrist 10.0069
rhand -43.1489 19.0521
rfingers 7.12502
rthumb -16.0017 -10.3071
lclavicle 7.15625e-015 1.61016e-014
lhumerus -21.7099 6.66397 66.2554
lradius 92.4532
lwrist 9.42326
lhand -38.7967 14.2181
lfingers 7.12502
lthumb -11.8076 43.8652
rfemur -45.8366 -2.78081 29.3686
rtibia 54.0198
rfoot -23.3157 -18.0771
rtoes 26.6617
lfemur -27.9456 10.0366 -21.9883
ltibia 77.5178
lfoot -2.50711 -3.3491
ltoes -18.4955
3332
root -30.894 15.7891 -5.57685 364.982 80.7525 -1803.44
lowerback 17.1252 -3.19608 -3.31594
upperback 12.0341 -3.80904 3.82708
thorax 3.90514 -1.97722 6.47443
lowerneck 10.0547 -15.2236 -10.8308
upperneck -21.2354 -17.9834 28.8802
head -3.86899 -10.7099 11.7923
rclavicle -3.99557e-014 3.61788e-014
rhumerus 8.21477 16.1584 -65.3618
rradius 94.856
rwrist 9.9948
rhand -43.0792 19.0338
rfingers 7.12502
rthumb -15.9346 -10.3307
lclavicle -3.99557e-014 3.61788e-014
lhumerus -21.6911 6.71324 66.302
lradius 92.4105
lwrist 9.48882
lhand -38.7532 14.2242
lfingers 7.12502
lthumb -11.7657 43.8737
rfemur -45.753 -2.61404 29.4609
rtibia 54.2625
rfoot -23.5889 -17.7122
rtoes 26.9442
lfemur -29.3774 9.98491 -21.8976
ltibia 78.2366
lfoot -3.90254 -2.43738
ltoes -19.644
3333
root -30.8411 15.7791 -5.58539 364.284 80.3868 -1804.17
lowerback 17.2482 -3.2107 -3.32643
upperback 12.0665 -3.82901 3.85848
thorax 3.88479 -1.98963 6.52363
lowerneck 9.96238 -15.3329 -10.8
upperneck -21.2214 -18.107 29.0843
head -3.79996 -10.789 11.83
rclavicle -4.96962e-015 -9.74045e-015
rhumerus 8.53763 16.3457 -65.5211
rradius 94.7395
rwrist 9.97113
rhand -43.015 19.0243
rfingers 7.12502
rthumb -15.8728 -10.3451
lclavicle -4.96962e-015 -9.74045e-015
lhumerus -21.633 6.74523 66.3349
lradius 92.3879
lwrist 9.55734
lhand -38.7235 14.2514
lfingers 7.12502
lthumb -11.737 43.9026
rfemur -45.6615 -2.49368 29.5631
rtibia 54.487
rfoot -23.855 -17.2565
rtoes 27.3605
lfemur -30.8055 9.89937 -21.7966
ltibia 78.7853
lfoot -5.35386 -1.25995
ltoes -19.9769
3334
root -30.7881 15.7711 -5.59492 363.615 80.006 -1804.87
lowerback 17.3755 -3.22475 -3.32713
upperback 12.1009 -3.84699 3.88202
thorax 3.86277 -2.00004 6.55874
lowerneck 9.87335 -15.4261 -10.7545
upperneck -21.2359 -18.2024 29.274
head -3.74901 -10.8545 11.8666
rclavicle -5.62561e-014 1.09332e-014
rhumerus 8.85027 16.5322 -65.6946
rradius 94.6087
rwrist 9.94625
rhand -42.9688 19.0418
rfingers 7.12502
rthumb -15.8283 -10.3311
lclavicle -5.62561e-014 1.09332e-014
lhumerus -21.5631 6.76166 66.3494
lradius 92.3829
lwrist 9.60866
lhand -38.7033 14.2474
lfingers 7.12502
lthumb -11.7175 43.8997
rfemur -45.5519 -2.43682 29.6794
rtibia 54.6839
rfoot -24.082 -16.7225
rtoes 27.8243
lfemur -32.2132 9.78635 -21.6842
ltibia 79.1557
lfoot -6.79569 0.165872
ltoes -20.2022
3335
root -30.7353 15.7651 -5.60554 363 79.6149 -1805.51
lowerback 17.5065 -3.24017 -3.32212
upperback 12.1331 -3.86636 3.8964
thorax 3.83515 -2.0103 6.58112
lowerneck 9.80814 -15.4987 -10.6978
upperneck -21.2828 -18.2638 29.4507
head -3.72175 -10.9048 11.9069
rclavicle -6.95746e-016 1.60022e-014
rhumerus 9.14862 16.7223 -65.8848
rradius 94.4603
rwrist 9.94524
rhand -42.9459 19.1036
rfingers 7.12502
rthumb -15.8063 -10.2711
lclavicle -6.95746e-016 1.60022e-014
lhumerus -21.4823 6.76055 66.3378
lradius 92.3867
lwrist 9.62991
lhand -38.6996 14.2302
lfingers 7.12502
lthumb -11.714 43.8827
rfemur -45.4299 -2.45783 29.8093
rtibia 54.8483
rfoot -24.2423 -16.1394
rtoes 28.2471
lfemur -33.5891 9.64218 -21.5589
ltibia 79.3392
lfoot -8.17925 1.77203
ltoes -20.3636
3336
root -30.6823 15.7614 -5.61724 362.427 79.2108 -1806.1
lowerback 17.6532 -3.25769 -3.32367
upperback 12.1528 -3.89039 3.90838
thorax 3.78671 -2.02281 6.60647
lowerneck 9.79444 -15.5416 -10.6541
upperneck -21.3535 -18.2857 29.6132
head -3.71908 -10.9369 11.9571
rclavicle -1.28216e-014 -1.55052e-014
rhumerus 9.41329 16.9431 -66.0779
rradius 94.3049
rwrist 9.97527
rhand -42.9449 19.2102
rfingers 7.12502
rthumb -15.8053 -10.1646
lclavicle -1.28216e-014 -1.55052e-014
lhumerus -21.4113 6.7511 66.3045
lradius 92.3875
lwrist 9.61102
lhand -38.7173 14.1942
lfingers 7.12502
lthumb -11.7311 43.8457
rfemur -45.2841 -2.55717 29.9521
rtibia 54.9745
rfoot -24.3241 -15.5236
rtoes 28.5725
lfemur -34.9127 9.47308 -21.4109
ltibia 79.3304
lfoot -9.47381 3.45921
ltoes -20.5266
3337
root -30.6298 15.7598 -5.62977 361.894 78.8031 -1806.64
lowerback 17.8144 -3.28082 -3.34119
upperback 12.1568 -3.92507 3.92405
thorax 3.71678 -2.04146 6.64762
lowerneck 9.8232 -15.5538 -10.6445
upperneck -21.4229 -18.2738 29.7655
head -3.728 -10.9513 12.0174
rclavicle -4.80065e-014 7.96133e-014
rhumerus 9.65072 17.2065 -66.2665
rradius 94.14
rwrist 10.0381
rhand -42.9577 19.348
rfingers 7.12502
rthumb -15.8177 -10.0258
lclavicle -4.80065e-014 7.96133e-014
lhumerus -21.3537 6.74722 66.248
lradius 92.3791
lwrist 9.55561
lhand -38.7372 14.1422
lfingers 7.12502
lthumb -11.7503 43.7927
rfemur -45.1227 -2.7303 30.1061
rtibia 55.0642
rfoot -24.3435 -14.8793
rtoes 28.8298
lfemur -36.1814 9.27575 -21.2299
ltibia 79.1314
lfoot -10.6696 5.11336
ltoes -20.7219
3338
root -30.5778 15.7601 -5.64305 361.364 78.3917 -1807.17
lowerback 17.995 -3.30596 -3.36598
upperback 12.1499 -3.96402 3.94607
thorax 3.62698 -2.06248 6.70202
lowerneck 9.86204 -15.5431 -10.6641
upperneck -21.4708 -18.2404 29.9032
head -3.73546 -10.9515 12.0786
rclavicle 3.08116e-014 -4.81556e-014
rhumerus 9.86649 17.4989 -66.4446
rradius 93.9718
rwrist 10.1146
rhand -42.9665 19.495
rfingers 7.12502
rthumb -15.8261 -9.87813
lclavicle 3.08116e-014 -4.81556e-014
lhumerus -21.2829 6.7477 66.1767
lradius 92.3463
lwrist 9.4762
lhand -38.7496 14.1075
lfingers 7.12502
lthumb -11.7621 43.7572
rfemur -44.9409 -2.96178 30.2753
rtibia 55.1159
rfoot -24.3033 -14.2323
rtoes 28.9902
lfemur -37.3829 9.05921 -21.0014
ltibia 78.7421
lfoot -11.7692 6.63698
ltoes -20.8303
